<svg xmlns="http://www.w3.org/2000/svg" width="1487" height="436" fill="none" viewBox="0 0 1487 436"><path fill="#fff" d="M255.808 381.645C247.146 388.617 239.35 395.016 232.132 401.12C225.492 407.221 216.541 412.456 204.704 418.56C193.155 424.662 182.472 429.024 171.212 431.349C160.529 434.549 145.516 436 125.883 436C89.7925 436 59.7654 423.211 36.0902 399.085C12.1263 374.378 0 344.149 0 306.652C0 275.55 6.06305 250.843 18.1895 232.241C30.6045 213.347 47.9279 198.232 70.4481 187.187C93.5459 176.141 121.263 168.294 153.023 163.933C185.359 159.863 219.717 155.795 256.962 153.76V151.148C256.962 128.767 248.301 112.78 231.844 104.35C215.098 95.6301 190.268 91.2703 156.776 91.2703C141.474 91.2703 124.15 94.1796 103.94 99.9904C84.0181 104.931 64.385 112.489 44.7519 120.919H34.3579V21.2189C47.0617 17.1486 67.2722 13.0799 95.5669 7.84808C123.862 2.61696 152.156 0 181.317 0C251.765 0 302.869 12.2081 335.206 35.4617C367.832 59.2964 384 95.6301 384 143.881V424.959L255.808 424.955V381.645ZM255.808 317.116V231.369C234.153 233.69 216.83 235.727 203.838 237.468C190.845 238.919 177.564 241.542 164.86 246.483C153.6 250.263 144.938 256.075 139.164 264.214C132.812 272.353 129.347 282.813 129.347 295.602C129.347 314.787 134.833 328.161 144.938 335.428C155.044 342.698 170.346 345.888 190.845 345.888C201.239 345.888 212.788 344.146 224.048 338.33C236.174 333.68 246.568 326.127 255.808 317.116"/><path fill="#fff" d="M672.486 435.996C637.943 435.996 605.762 431.464 577.124 423.25C548.781 414.753 523.981 402.008 502.724 384.731C481.467 366.888 465.229 345.079 453.419 319.022C441.61 292.681 436 261.243 436 225.839C436 187.037 441.905 155.031 454.895 127.558C467.59 100.651 484.419 78.559 506.562 61.2821C527.524 44.5714 552.029 32.1097 580.667 24.1789C608.714 15.9653 638.238 12 668.943 12C691.971 12 715.591 14.8351 738.324 20.2137C761.648 25.0281 784.676 33.2423 808 44.5715V151.916H791.171C786.448 147.101 779.657 141.719 772.276 136.621C764.305 130.393 756.629 125.292 747.476 120.76C738.029 115.098 726.81 111.697 715.59 107.732C703.191 104.331 689.905 102.35 675.143 102.35C641.781 102.35 615.8 113.396 597.495 136.055C579.486 158.147 569.743 188.169 569.743 225.839C569.743 265.775 579.781 296.08 599.267 315.906C618.752 335.449 644.438 345.362 677.21 345.362C693.743 345.362 708.505 343.382 721.2 340.264C733.305 336.58 743.933 332.05 752.495 327.235C761.648 322.138 769.324 317.326 775.524 311.662C781.724 306.565 787.333 301.749 791.171 297.5H808V404.561C800.619 407.679 792.057 411.351 782.019 415.603C772.276 419.286 762.829 422.687 752.2 425.233C739.8 429.199 727.4 430.896 716.476 432.88C705.257 434.867 690.79 436 672.486 436"/><path fill="#fff" d="M1360.04 424V223.507C1360.04 204.022 1359.75 187.643 1358.89 173.807C1358.02 160.252 1355.73 148.957 1351.99 140.485C1348.55 131.732 1342.51 125.801 1335.04 121.848C1327.58 117.612 1316.66 115.922 1303.16 115.922C1293.39 115.922 1283.91 117.612 1274.15 121.848C1264.67 126.084 1254.33 132.296 1243.13 139.638V424H1115.87V223.507C1115.87 204.022 1115.59 187.643 1114.72 173.807C1113.58 160.252 1111.85 148.957 1108.12 140.485C1104.1 131.732 1098.64 125.801 1091.17 121.848C1083.13 117.612 1072.5 115.922 1059 115.922C1048.37 115.922 1038.32 118.177 1028.26 122.695C1018.21 127.777 1008.44 133.425 999.251 139.638V424H872V23.2954H999.251V67.6299C1019.93 50.4045 1039.75 36.5676 1058.14 26.684C1076.23 17.0831 1096.92 12 1120.18 12C1144.89 12 1167 17.9284 1185.39 29.5079C1204.92 41.0859 1219 58.3111 1229.05 81.7491C1253.47 59.441 1276.73 42.2146 1297.99 30.0727C1319.82 17.93 1341.65 12 1363.77 12C1382.73 12 1399.68 15.3904 1414.9 21.0363C1429.84 27.2461 1442.76 36.2849 1452.82 47.8629C1464.59 60.8528 1472.92 76.101 1478.38 93.8917C1484.41 111.682 1487 134.555 1487 163.358L1487 424H1360.04Z"/></svg>