<svg xmlns="http://www.w3.org/2000/svg" width="1663" height="485" fill="none" viewBox="0 0 1663 485"><path fill="#fff" d="M554.587 64.1682H656.332V431.613H554.587V64.1682ZM709.72 431.613V64.1682H989.514V135.409H811.462V211.229H975.258V282.483H811.462V360.339H989.514V431.613H709.72V431.613ZM1046.52 431.613V64.1682H1326.24V135.409H1148.24V211.229H1311.98V282.483H1148.24V360.339H1326.24V431.613H1046.52ZM1383.21 431.613V64.1682H1663V135.409H1485.01V211.229H1648.77V282.483H1485.01V360.339H1663V431.613H1383.21ZM232.095 284.76C230.75 310.706 230.419 334.719 228.499 360.729C238.763 361.662 250.349 362.559 261.295 360.963L258.021 288.455L257.446 285.004C249.111 285.329 241.222 285.664 232.092 284.76H232.095ZM167.985 211.901C155.34 218.241 136.739 227.823 138.791 245.171C141.5 254.643 151.751 260.764 159.865 264.657C204.704 284.422 264.231 285.095 311.571 270.343C323.258 265.836 338.949 259.302 341.096 244.976C340.969 233.142 328.445 225.691 319.448 221.158V220.596C322.585 219.358 326.194 218.241 329.442 217.899V217.584C313.588 214.741 298.277 210.592 282.92 206.53C285.876 213.272 288.013 220.382 290.479 227.391C295.091 225.912 299.823 224.791 304.802 224.109C312.9 227.264 324.499 231.777 325.648 241.905C326.548 251.38 316.184 255.994 309.639 259.842C274.914 272.481 235.843 273.716 199.627 264.105C189.623 260.953 175.189 256.904 173.948 244.16C181.048 227.387 199.413 223.894 214.75 219.823C206.867 214.741 198.851 210.244 191.212 204.59C182.962 205.045 175.426 208.658 167.985 211.901ZM244.704 110.689L240.208 125.125L217.667 189.718C223.312 190.293 230.302 189.718 235.843 190.293V190.826L232.546 263.89L233.115 264.657C240.325 265.365 249.329 265.726 256.679 264.472V263.322L253.737 192.454L254.178 190.056L274.011 189.718C264.121 163.571 254.523 137.161 245.285 110.689H244.7H244.704ZM234.229 78.2344C250.813 66.9333 265.693 82.7347 278.542 91.7646C328.224 131.77 375.106 177.563 410.835 229.275C415.334 235.946 417.37 246.308 413.333 253.86C404.073 269.313 391.574 283.418 379.728 297.741V298.525C350.191 329.978 318.996 362.315 285.288 388.953C268.837 398.967 253.737 420.838 232.546 407.289C184.297 372.017 138.126 328.165 98.9865 281.131C92.3508 270.792 81.9895 262.317 77.374 250.587C70.9331 234.708 85.1336 223.313 93.257 211.352C133.166 162.115 182.731 113.834 234.232 78.2344H234.229ZM275.814 31.2104L257.449 5.17375C255.195 3.80254 252.392 1.52802 249.901 0.861914C244.486 -1.48734 238.646 1.35581 234.226 4.70909L200.998 48.0061C147.685 114.058 84.5749 175.733 15.726 223.011C10.2856 227.264 2.19467 231.417 0.508937 238.429C-1.29698 244.732 1.9868 249.938 5.9007 253.863C61.0331 291.85 113.742 336.951 160.66 388.384C168.988 397.138 175.741 405.843 183.887 414.06C197.61 432.328 213.73 450.742 226.346 470.338C230.302 474.475 230.981 481.275 237.165 483.29C242.008 484.967 247.988 486.104 252.606 483.29L257.199 478.676C314.244 397.833 386.595 325.224 467.429 266.607C475.517 259.377 490.974 256.69 491.195 243.273C490.62 237.083 487.018 230.984 481.704 227.605L480.382 227.387C438.784 199.079 400.025 167.064 363.511 130.743L323.16 88.577C306.813 70.4458 290.927 50.3651 275.814 31.2104ZM228.269 68.298C244.486 55.6712 264.894 66.1568 278.539 77.773C292.83 88.7005 307.716 101.084 320.783 113.736L323.157 115.101C359.34 148.686 392.941 186.011 420.547 225.47C425.022 232.336 428.979 240.118 426.478 249.233C417.273 272.254 398.567 290.603 382.213 310.709C346.829 348.808 309.502 385.674 267.719 415.087C259.268 421.066 247.864 426.589 237.74 421.845C206.981 405.739 181.045 379.354 154.125 355.316C122.905 326.355 91.5712 292.637 67.9092 257.362C64.3916 252.414 63.4009 246.308 63.5048 239.78C66.545 227.605 74.886 217.584 82.7755 207.32C110.735 171.675 144.982 137.862 179.567 106.975C180.366 106.185 181.841 104.499 183.095 103.696C197.948 90.8482 212.704 79.4757 228.269 68.298V68.298Z"/></svg>